<?xml version="1.0" encoding="UTF-8"?>
<svg viewBox="0 0 32 32" xmlns="http://www.w3.org/2000/svg">
  <rect width="32" height="32" rx="6" fill="#050b2e"/>
  <path d="M2,28 L6,22 L8,24 L12,17 L14,19 L18,12 L20,8 L22,12 L24,10 L27,16 L30,22 L32,28Z" fill="#e8eeff" opacity="0.9"/>
  <polyline points="3,26 7,22 10,24 14,18 17,20 21,13 24,16 27,5 30,2" stroke="#00c9b8" stroke-width="1.8" stroke-linecap="round" stroke-linejoin="round" fill="none"/>
  <path d="M30,0.5 L30.5,2.2 L32,2.7 L30.5,3.2 L30,5 L29.5,3.2 L28,2.7 L29.5,2.2Z" fill="#f2c94c"/>
</svg>