<?xml version="1.0" encoding="UTF-8"?>
<svg viewBox="0 0 170 110" xmlns="http://www.w3.org/2000/svg">
  <path d="M12 96 L44 69 L58 80 L87 25 L110 53 L126 41 L147 64 L169 96 Z" fill="#dfe7ff"/>
  <path d="M58 80 L87 25 L103 45 L96 45 L82 63 L74 55 L62 71 Z" fill="#18386f"/>
  <path d="M30 86 L54 66 L72 77" fill="none" stroke="#f87171" stroke-width="5.5" stroke-linecap="round" stroke-linejoin="round" opacity="0.98"/>
  <path d="M72 77 L95 41 L114 57 L138 25" fill="none" stroke="#4ade80" stroke-width="5.5" stroke-linecap="round" stroke-linejoin="round" opacity="0.98"/>
  <path d="M148 10.5 L150.4 17.9 L157.8 20.3 L150.4 22.7 L148 30.1 L145.6 22.7 L138.2 20.3 L145.6 17.9 Z" fill="#f2c94c"/>
</svg>
